<svg width="100" height="100" viewBox="0 0 24 24" fill="#CD853F" xmlns="http://www.w3.org/2000/svg">
<path d="M12 2C6.48 2 2 6.48 2 12C2 17.52 6.48 22 12 22C17.52 22 22 17.52 22 12C22 6.48 17.52 2 12 2ZM8 9C8.83 9 9.5 9.67 9.5 10.5C9.5 11.33 8.83 12 8 12C7.17 12 6.5 11.33 6.5 10.5C6.5 9.67 7.17 9 8 9ZM16 9C16.83 9 17.5 9.67 17.5 10.5C17.5 11.33 16.83 12 16 12C15.17 12 14.5 11.33 14.5 10.5C14.5 9.67 15.17 9 16 9ZM12 18C9.79 18 7.89 16.59 7.22 14.65L8.88 14.08C9.33 15.39 10.57 16.3 12 16.3C13.43 16.3 14.67 15.39 15.12 14.08L16.78 14.65C16.11 16.59 14.21 18 12 18Z"/>
</svg>